<?xml version="1.0" encoding="iso-8859-1"?>
<!-- Uploaded to: SVG Repo, www.svgrepo.com, Generator: SVG Repo Mixer Tools -->
<svg fill="#000000" height="48px" width="48px" version="1.1" id="Layer_1" xmlns="http://www.w3.org/2000/svg" xmlns:xlink="http://www.w3.org/1999/xlink" 
	 viewBox="0 0 512.015 512.015" xml:space="preserve">
<g>
	<g>
		<g>
			<path d="M256.007,213.341c35.355,0,64-28.645,64-64s-28.645-64-64-64s-64,28.645-64,64S220.652,213.341,256.007,213.341z
				 M256.007,128.008c11.791,0,21.333,9.542,21.333,21.333s-9.542,21.333-21.333,21.333c-11.791,0-21.333-9.542-21.333-21.333
				S244.216,128.008,256.007,128.008z"/>
			<path d="M511.593,486.491l-42.667-213.333c-1.994-9.972-10.75-17.15-20.919-17.15h-82.927c1.362-2.146,2.744-4.321,4.162-6.55
				l1.036-1.629c5.852-9.199,8.681-13.651,12.042-18.961c14.956-23.623,23.02-50.992,23.02-79.527
				c0-89.032-77.35-158.521-166.786-148.343c-66.548,7.591-121.188,60.835-130.398,127.125
				c-5.511,39.683,4.604,78.394,27.526,109.517c4.485,6.08,8.817,12.17,13.068,18.368H64.007c-10.169,0-18.925,7.178-20.919,17.15
				L0.422,486.491c-2.64,13.201,7.457,25.517,20.919,25.517h469.333C504.136,512.008,514.233,499.692,511.593,486.491z
				 M150.418,133.993c6.528-46.989,45.76-85.218,92.967-90.603c64.055-7.29,119.289,42.33,119.289,105.951
				c0,20.39-5.735,39.855-16.403,56.706c-3.34,5.276-6.155,9.708-11.991,18.88l-1.036,1.629
				c-40.148,63.109-58.184,93.122-77.28,131.152c-33.196-65.363-56.271-105.169-85.935-145.383
				C153.652,190.089,146.453,162.54,150.418,133.993z M47.363,469.341l34.133-170.667h93.854
				c15.711,26.598,31.008,55.273,49.787,92.647c1.027,2.044,2.059,4.103,3.107,6.198l8.681,17.362
				c7.863,15.726,30.305,15.723,38.164-0.004l18.389-36.8c12.281-24.528,26.224-48.997,44.921-79.403h92.117l34.133,170.667H47.363z
				"/>
		</g>
	</g>
</g>
</svg>