<?xml version="1.0" standalone="no"?>
<!DOCTYPE svg PUBLIC "-//W3C//DTD SVG 20010904//EN"
 "http://www.w3.org/TR/2001/REC-SVG-20010904/DTD/svg10.dtd">
<svg version="1.0" xmlns="http://www.w3.org/2000/svg"
 width="512.000000pt" height="512.000000pt" viewBox="0 0 512.000000 512.000000"
 preserveAspectRatio="xMidYMid meet">

<g transform="translate(0.000000,512.000000) scale(0.100000,-0.100000)"
fill="#000000" stroke="none">
<path d="M2400 5113 c-401 -28 -777 -142 -1113 -335 l-92 -53 110 -5 110 -5
-103 -73 c-56 -40 -102 -78 -102 -85 0 -7 16 -61 35 -121 19 -60 35 -113 35
-118 0 -4 -47 26 -103 67 -57 41 -107 75 -110 75 -4 0 -53 -34 -109 -75 -56
-41 -103 -73 -105 -72 -1 2 13 49 32 106 l34 102 -27 -20 c-88 -63 -452 -475
-452 -513 0 -4 15 -8 32 -10 l33 -3 -71 -51 c-51 -37 -79 -67 -101 -105 l-30
-53 29 -89 c16 -49 28 -93 26 -98 -2 -5 -28 9 -59 30 l-55 40 -42 -97 -42 -97
35 -112 36 -112 132 -3 132 -3 -102 -75 c-57 -41 -103 -80 -103 -85 0 -6 18
-64 39 -128 22 -64 37 -117 34 -117 -2 0 -52 34 -109 76 l-104 76 -64 -47
c-72 -53 -68 -40 -82 -262 l-7 -103 2563 0 2563 0 -7 123 c-10 176 -39 370
-77 510 l-10 37 -1234 0 -1235 0 0 335 0 335 1090 0 1091 0 -60 88 c-122 182
-286 367 -450 508 l-74 64 -799 0 -798 0 0 280 0 280 -57 -2 c-32 -1 -78 -3
-103 -5z m-366 -275 l37 -117 134 -3 134 -3 -105 -74 c-57 -41 -104 -79 -104
-84 0 -6 16 -62 36 -125 19 -63 34 -115 32 -117 -2 -2 -49 30 -106 71 l-103
75 -106 -76 c-59 -41 -108 -73 -110 -72 -1 2 16 59 38 126 24 72 38 126 32
130 -5 3 -54 38 -108 76 l-98 70 134 3 134 3 39 125 c22 68 43 121 46 117 4
-5 23 -61 44 -125z m-919 -745 l37 -113 129 0 c71 0 129 -4 129 -8 0 -5 -43
-39 -96 -77 -53 -37 -98 -73 -100 -80 -3 -7 11 -63 31 -124 20 -62 34 -115 32
-118 -3 -2 -49 27 -102 66 -54 39 -102 71 -106 71 -5 0 -55 -33 -112 -74 -56
-41 -103 -73 -104 -72 -1 1 16 58 38 126 38 121 39 125 20 140 -10 8 -58 44
-107 80 l-89 65 136 3 135 3 39 119 c22 66 42 117 46 112 3 -4 23 -58 44 -119z
m915 4 l36 -112 132 -3 c73 -1 132 -6 132 -10 0 -4 -43 -38 -96 -76 -52 -37
-98 -74 -101 -81 -2 -8 12 -64 32 -125 20 -61 35 -114 32 -116 -3 -3 -49 26
-103 65 -54 39 -103 71 -109 71 -5 0 -55 -34 -110 -74 -55 -41 -101 -73 -103
-71 -2 1 15 58 37 126 l41 124 -23 17 c-12 10 -59 44 -104 75 -45 32 -82 61
-83 66 0 4 60 7 133 7 l133 0 38 121 c20 67 40 118 44 115 4 -4 23 -57 42
-119z m-920 -742 l42 -125 129 0 c78 0 128 -4 124 -9 -3 -5 -48 -40 -100 -77
-52 -37 -95 -72 -95 -79 0 -6 16 -62 36 -124 19 -62 34 -114 32 -116 -2 -2
-50 30 -107 71 l-104 74 -66 -47 c-36 -26 -84 -60 -105 -75 -22 -16 -40 -27
-42 -25 -2 1 14 56 35 122 22 66 37 123 34 127 -2 5 -50 41 -106 80 l-101 73
134 5 134 5 40 123 c22 67 41 122 42 122 1 0 21 -56 44 -125z m924 -7 l37
-117 134 -3 134 -3 -105 -74 c-57 -41 -104 -80 -104 -86 0 -6 16 -62 36 -124
19 -62 34 -114 32 -116 -2 -2 -50 30 -107 71 l-104 73 -31 -21 c-17 -12 -64
-46 -104 -76 -41 -29 -76 -52 -78 -50 -2 3 15 59 37 127 23 67 40 123 38 125
-2 1 -51 36 -108 77 l-103 74 133 3 134 3 39 125 c22 68 42 121 46 117 4 -4
23 -61 44 -125z"/>
<path d="M94 1873 c3 -10 15 -49 27 -88 45 -148 164 -414 235 -527 l24 -38
2180 0 2180 0 24 38 c71 113 190 379 235 527 12 39 24 78 27 88 5 16 -117 17
-2466 17 -2349 0 -2471 -1 -2466 -17z"/>
<path d="M980 553 c1 -23 265 -193 430 -277 731 -371 1596 -366 2327 14 156
81 403 243 403 264 0 3 -711 6 -1580 6 -869 0 -1580 -3 -1580 -7z"/>
</g>
</svg>
